solid OpenSCAD_Model
  facet normal 0.9438833309991452 -0.33027905998103807 2.3343538909321502e-17
    outer loop
      vertex 43.39000000059605 -17.895000003278255 4
      vertex 42.953662969172 -19.141979604959488 5.8
      vertex 42.953662969172 -19.141979604959488 4
    endloop
  endfacet
  facet normal 0.9438833309991452 -0.33027905998103807 0
    outer loop
      vertex 43.39000000059605 -17.895000003278255 4
      vertex 43.39000000059605 -17.895000003278255 5.8
      vertex 42.953662969172 -19.141979604959488 5.8
    endloop
  endfacet
  facet normal 1 0 0
    outer loop
      vertex 43.39000000059605 17.895000003278255 4
      vertex 43.39000000059605 -17.895000003278255 5.8
      vertex 43.39000000059605 -17.895000003278255 4
    endloop
  endfacet
  facet normal 1 0 0
    outer loop
      vertex 43.39000000059605 17.895000003278255 4
      vertex 43.39000000059605 17.895000003278255 5.8
      vertex 43.39000000059605 -17.895000003278255 5.8
    endloop
  endfacet
  facet normal 0.9009688678385959 0.4338837392500884 -1.7769465416334286e-17
    outer loop
      vertex 42.63697960227728 19.45866297185421 4
      vertex 43.39000000059605 17.895000003278255 5.8
      vertex 43.39000000059605 17.895000003278255 4
    endloop
  endfacet
  facet normal 0.9009688678385959 0.4338837392500884 0
    outer loop
      vertex 42.63697960227728 19.45866297185421 4
      vertex 42.63697960227728 19.45866297185421 5.8
      vertex 43.39000000059605 17.895000003278255 5.8
    endloop
  endfacet
  facet normal 0.33027905998103807 0.9438833309991452 -2.3343538909321502e-17
    outer loop
      vertex 41.39000000059605 19.895000003278255 4
      vertex 42.63697960227728 19.45866297185421 5.8
      vertex 42.63697960227728 19.45866297185421 4
    endloop
  endfacet
  facet normal 0.33027905998103807 0.9438833309991452 0
    outer loop
      vertex 41.39000000059605 19.895000003278255 4
      vertex 41.39000000059605 19.895000003278255 5.8
      vertex 42.63697960227728 19.45866297185421 5.8
    endloop
  endfacet
  facet normal 0 1 0
    outer loop
      vertex -41.39000000059605 19.895000003278255 4
      vertex 41.39000000059605 19.895000003278255 5.8
      vertex 41.39000000059605 19.895000003278255 4
    endloop
  endfacet
  facet normal 0 1 0
    outer loop
      vertex -41.39000000059605 19.895000003278255 4
      vertex -41.39000000059605 19.895000003278255 5.8
      vertex 41.39000000059605 19.895000003278255 5.8
    endloop
  endfacet
  facet normal -0.4338837392500884 0.9009688678385959 1.7769465416334286e-17
    outer loop
      vertex -42.953662969172 19.141979604959488 4
      vertex -41.39000000059605 19.895000003278255 5.8
      vertex -41.39000000059605 19.895000003278255 4
    endloop
  endfacet
  facet normal -0.4338837392500884 0.9009688678385959 0
    outer loop
      vertex -42.953662969172 19.141979604959488 4
      vertex -42.953662969172 19.141979604959488 5.8
      vertex -41.39000000059605 19.895000003278255 5.8
    endloop
  endfacet
  facet normal -0.9438833309991452 0.33027905998103807 2.3343538909321502e-17
    outer loop
      vertex -43.39000000059605 17.895000003278255 4
      vertex -42.953662969172 19.141979604959488 5.8
      vertex -42.953662969172 19.141979604959488 4
    endloop
  endfacet
  facet normal -0.9438833309991452 0.33027905998103807 0
    outer loop
      vertex -43.39000000059605 17.895000003278255 4
      vertex -43.39000000059605 17.895000003278255 5.8
      vertex -42.953662969172 19.141979604959488 5.8
    endloop
  endfacet
  facet normal -1 0 0
    outer loop
      vertex -43.39000000059605 -17.895000003278255 4
      vertex -43.39000000059605 17.895000003278255 5.8
      vertex -43.39000000059605 17.895000003278255 4
    endloop
  endfacet
  facet normal -1 0 0
    outer loop
      vertex -43.39000000059605 -17.895000003278255 4
      vertex -43.39000000059605 -17.895000003278255 5.8
      vertex -43.39000000059605 17.895000003278255 5.8
    endloop
  endfacet
  facet normal -0.9009688678385959 -0.4338837392500884 -1.7769465416334286e-17
    outer loop
      vertex -42.63697960227728 -19.45866297185421 4
      vertex -43.39000000059605 -17.895000003278255 5.8
      vertex -43.39000000059605 -17.895000003278255 4
    endloop
  endfacet
  facet normal -0.9009688678385959 -0.4338837392500884 0
    outer loop
      vertex -42.63697960227728 -19.45866297185421 4
      vertex -42.63697960227728 -19.45866297185421 5.8
      vertex -43.39000000059605 -17.895000003278255 5.8
    endloop
  endfacet
  facet normal -0.33027905998103807 -0.9438833309991452 -2.3343538909321502e-17
    outer loop
      vertex -41.39000000059605 -19.895000003278255 4
      vertex -42.63697960227728 -19.45866297185421 5.8
      vertex -42.63697960227728 -19.45866297185421 4
    endloop
  endfacet
  facet normal -0.33027905998103807 -0.9438833309991452 0
    outer loop
      vertex -41.39000000059605 -19.895000003278255 4
      vertex -41.39000000059605 -19.895000003278255 5.8
      vertex -42.63697960227728 -19.45866297185421 5.8
    endloop
  endfacet
  facet normal 0 -1 0
    outer loop
      vertex 41.39000000059605 -19.895000003278255 4
      vertex -41.39000000059605 -19.895000003278255 5.8
      vertex -41.39000000059605 -19.895000003278255 4
    endloop
  endfacet
  facet normal 0 -1 0
    outer loop
      vertex 41.39000000059605 -19.895000003278255 4
      vertex 41.39000000059605 -19.895000003278255 5.8
      vertex -41.39000000059605 -19.895000003278255 5.8
    endloop
  endfacet
  facet normal 0.4338837392500884 -0.9009688678385959 1.7769465416334286e-17
    outer loop
      vertex 42.953662969172 -19.141979604959488 4
      vertex 41.39000000059605 -19.895000003278255 5.8
      vertex 41.39000000059605 -19.895000003278255 4
    endloop
  endfacet
  facet normal 0.4338837392500884 -0.9009688678385959 0
    outer loop
      vertex 42.953662969172 -19.141979604959488 4
      vertex 42.953662969172 -19.141979604959488 5.8
      vertex 41.39000000059605 -19.895000003278255 5.8
    endloop
  endfacet
  facet normal 0 0 1
    outer loop
      vertex 42.953662969172 -19.141979604959488 5.8
      vertex 43.39000000059605 -17.895000003278255 5.8
      vertex 41.39000000059605 -19.895000003278255 5.8
    endloop
  endfacet
  facet normal 0 0 1
    outer loop
      vertex 43.39000000059605 -17.895000003278255 5.8
      vertex -41.39000000059605 -19.895000003278255 5.8
      vertex 41.39000000059605 -19.895000003278255 5.8
    endloop
  endfacet
  facet normal 0 0 1
    outer loop
      vertex 43.39000000059605 -17.895000003278255 5.8
      vertex 43.39000000059605 17.895000003278255 5.8
      vertex -41.39000000059605 -19.895000003278255 5.8
    endloop
  endfacet
  facet normal 0 0 1
    outer loop
      vertex 43.39000000059605 17.895000003278255 5.8
      vertex -42.63697960227728 -19.45866297185421 5.8
      vertex -41.39000000059605 -19.895000003278255 5.8
    endloop
  endfacet
  facet normal 0 0 1
    outer loop
      vertex 43.39000000059605 17.895000003278255 5.8
      vertex 42.63697960227728 19.45866297185421 5.8
      vertex -42.63697960227728 -19.45866297185421 5.8
    endloop
  endfacet
  facet normal 0 0 1
    outer loop
      vertex 42.63697960227728 19.45866297185421 5.8
      vertex -43.39000000059605 -17.895000003278255 5.8
      vertex -42.63697960227728 -19.45866297185421 5.8
    endloop
  endfacet
  facet normal 0 0 1
    outer loop
      vertex 42.63697960227728 19.45866297185421 5.8
      vertex 41.39000000059605 19.895000003278255 5.8
      vertex -43.39000000059605 -17.895000003278255 5.8
    endloop
  endfacet
  facet normal 0 0 1
    outer loop
      vertex 41.39000000059605 19.895000003278255 5.8
      vertex -43.39000000059605 17.895000003278255 5.8
      vertex -43.39000000059605 -17.895000003278255 5.8
    endloop
  endfacet
  facet normal 0 0 1
    outer loop
      vertex 41.39000000059605 19.895000003278255 5.8
      vertex -41.39000000059605 19.895000003278255 5.8
      vertex -43.39000000059605 17.895000003278255 5.8
    endloop
  endfacet
  facet normal 0 0 1
    outer loop
      vertex -41.39000000059605 19.895000003278255 5.8
      vertex -42.953662969172 19.141979604959488 5.8
      vertex -43.39000000059605 17.895000003278255 5.8
    endloop
  endfacet
  facet normal 0 0 -1
    outer loop
      vertex 41.39000000059605 -19.895000003278255 4
      vertex 43.39000000059605 -17.895000003278255 4
      vertex 42.953662969172 -19.141979604959488 4
    endloop
  endfacet
  facet normal 0 0 -1
    outer loop
      vertex 41.39000000059605 -19.895000003278255 4
      vertex -41.39000000059605 -19.895000003278255 4
      vertex 43.39000000059605 -17.895000003278255 4
    endloop
  endfacet
  facet normal 0 0 -1
    outer loop
      vertex -41.39000000059605 -19.895000003278255 4
      vertex 43.39000000059605 17.895000003278255 4
      vertex 43.39000000059605 -17.895000003278255 4
    endloop
  endfacet
  facet normal 0 0 -1
    outer loop
      vertex -41.39000000059605 -19.895000003278255 4
      vertex -42.63697960227728 -19.45866297185421 4
      vertex 43.39000000059605 17.895000003278255 4
    endloop
  endfacet
  facet normal 0 0 -1
    outer loop
      vertex -42.63697960227728 -19.45866297185421 4
      vertex 42.63697960227728 19.45866297185421 4
      vertex 43.39000000059605 17.895000003278255 4
    endloop
  endfacet
  facet normal 0 0 -1
    outer loop
      vertex -42.63697960227728 -19.45866297185421 4
      vertex -43.39000000059605 -17.895000003278255 4
      vertex 42.63697960227728 19.45866297185421 4
    endloop
  endfacet
  facet normal 0 0 -1
    outer loop
      vertex -43.39000000059605 -17.895000003278255 4
      vertex 41.39000000059605 19.895000003278255 4
      vertex 42.63697960227728 19.45866297185421 4
    endloop
  endfacet
  facet normal 0 0 -1
    outer loop
      vertex -43.39000000059605 -17.895000003278255 4
      vertex -43.39000000059605 17.895000003278255 4
      vertex 41.39000000059605 19.895000003278255 4
    endloop
  endfacet
  facet normal 0 0 -1
    outer loop
      vertex -43.39000000059605 17.895000003278255 4
      vertex -41.39000000059605 19.895000003278255 4
      vertex 41.39000000059605 19.895000003278255 4
    endloop
  endfacet
  facet normal 0 0 -1
    outer loop
      vertex -43.39000000059605 17.895000003278255 4
      vertex -42.953662969172 19.141979604959488 4
      vertex -41.39000000059605 19.895000003278255 4
    endloop
  endfacet
endsolid OpenSCAD_Model
