solid OpenSCAD_Model
  facet normal 0.9438833309991452 -0.3302790599810381 2.3343538909321502e-17
    outer loop
      vertex 42.89000000059605 -17.395000003278255 0
      vertex 42.453662969172 -18.641979604959488 1.8
      vertex 42.453662969172 -18.641979604959488 0
    endloop
  endfacet
  facet normal 0.9438833309991452 -0.3302790599810381 0
    outer loop
      vertex 42.89000000059605 -17.395000003278255 0
      vertex 42.89000000059605 -17.395000003278255 1.8
      vertex 42.453662969172 -18.641979604959488 1.8
    endloop
  endfacet
  facet normal 1 0 0
    outer loop
      vertex 42.89000000059605 17.395000003278255 0
      vertex 42.89000000059605 -17.395000003278255 1.8
      vertex 42.89000000059605 -17.395000003278255 0
    endloop
  endfacet
  facet normal 1 0 0
    outer loop
      vertex 42.89000000059605 17.395000003278255 0
      vertex 42.89000000059605 17.395000003278255 1.8
      vertex 42.89000000059605 -17.395000003278255 1.8
    endloop
  endfacet
  facet normal 0.900968867838596 0.4338837392500884 -1.7769465416334286e-17
    outer loop
      vertex 42.13697960227728 18.95866297185421 0
      vertex 42.89000000059605 17.395000003278255 1.8
      vertex 42.89000000059605 17.395000003278255 0
    endloop
  endfacet
  facet normal 0.900968867838596 0.4338837392500884 0
    outer loop
      vertex 42.13697960227728 18.95866297185421 0
      vertex 42.13697960227728 18.95866297185421 1.8
      vertex 42.89000000059605 17.395000003278255 1.8
    endloop
  endfacet
  facet normal 0.3302790599810381 0.9438833309991452 -2.3343538909321502e-17
    outer loop
      vertex 40.89000000059605 19.395000003278255 0
      vertex 42.13697960227728 18.95866297185421 1.8
      vertex 42.13697960227728 18.95866297185421 0
    endloop
  endfacet
  facet normal 0.3302790599810381 0.9438833309991452 0
    outer loop
      vertex 40.89000000059605 19.395000003278255 0
      vertex 40.89000000059605 19.395000003278255 1.8
      vertex 42.13697960227728 18.95866297185421 1.8
    endloop
  endfacet
  facet normal 0 1 0
    outer loop
      vertex -40.89000000059605 19.395000003278255 0
      vertex 40.89000000059605 19.395000003278255 1.8
      vertex 40.89000000059605 19.395000003278255 0
    endloop
  endfacet
  facet normal 0 1 0
    outer loop
      vertex -40.89000000059605 19.395000003278255 0
      vertex -40.89000000059605 19.395000003278255 1.8
      vertex 40.89000000059605 19.395000003278255 1.8
    endloop
  endfacet
  facet normal -0.4338837392500884 0.900968867838596 1.7769465416334286e-17
    outer loop
      vertex -42.453662969172 18.641979604959488 0
      vertex -40.89000000059605 19.395000003278255 1.8
      vertex -40.89000000059605 19.395000003278255 0
    endloop
  endfacet
  facet normal -0.4338837392500884 0.900968867838596 0
    outer loop
      vertex -42.453662969172 18.641979604959488 0
      vertex -42.453662969172 18.641979604959488 1.8
      vertex -40.89000000059605 19.395000003278255 1.8
    endloop
  endfacet
  facet normal -0.9438833309991452 0.3302790599810381 2.3343538909321502e-17
    outer loop
      vertex -42.89000000059605 17.395000003278255 0
      vertex -42.453662969172 18.641979604959488 1.8
      vertex -42.453662969172 18.641979604959488 0
    endloop
  endfacet
  facet normal -0.9438833309991452 0.3302790599810381 0
    outer loop
      vertex -42.89000000059605 17.395000003278255 0
      vertex -42.89000000059605 17.395000003278255 1.8
      vertex -42.453662969172 18.641979604959488 1.8
    endloop
  endfacet
  facet normal -1 0 0
    outer loop
      vertex -42.89000000059605 -17.395000003278255 0
      vertex -42.89000000059605 17.395000003278255 1.8
      vertex -42.89000000059605 17.395000003278255 0
    endloop
  endfacet
  facet normal -1 0 0
    outer loop
      vertex -42.89000000059605 -17.395000003278255 0
      vertex -42.89000000059605 -17.395000003278255 1.8
      vertex -42.89000000059605 17.395000003278255 1.8
    endloop
  endfacet
  facet normal -0.900968867838596 -0.4338837392500884 -1.7769465416334286e-17
    outer loop
      vertex -42.13697960227728 -18.95866297185421 0
      vertex -42.89000000059605 -17.395000003278255 1.8
      vertex -42.89000000059605 -17.395000003278255 0
    endloop
  endfacet
  facet normal -0.900968867838596 -0.4338837392500884 0
    outer loop
      vertex -42.13697960227728 -18.95866297185421 0
      vertex -42.13697960227728 -18.95866297185421 1.8
      vertex -42.89000000059605 -17.395000003278255 1.8
    endloop
  endfacet
  facet normal -0.3302790599810381 -0.9438833309991452 -2.3343538909321502e-17
    outer loop
      vertex -40.89000000059605 -19.395000003278255 0
      vertex -42.13697960227728 -18.95866297185421 1.8
      vertex -42.13697960227728 -18.95866297185421 0
    endloop
  endfacet
  facet normal -0.3302790599810381 -0.9438833309991452 0
    outer loop
      vertex -40.89000000059605 -19.395000003278255 0
      vertex -40.89000000059605 -19.395000003278255 1.8
      vertex -42.13697960227728 -18.95866297185421 1.8
    endloop
  endfacet
  facet normal 0 -1 0
    outer loop
      vertex 40.89000000059605 -19.395000003278255 0
      vertex -40.89000000059605 -19.395000003278255 1.8
      vertex -40.89000000059605 -19.395000003278255 0
    endloop
  endfacet
  facet normal 0 -1 0
    outer loop
      vertex 40.89000000059605 -19.395000003278255 0
      vertex 40.89000000059605 -19.395000003278255 1.8
      vertex -40.89000000059605 -19.395000003278255 1.8
    endloop
  endfacet
  facet normal 0.4338837392500884 -0.900968867838596 1.7769465416334286e-17
    outer loop
      vertex 42.453662969172 -18.641979604959488 0
      vertex 40.89000000059605 -19.395000003278255 1.8
      vertex 40.89000000059605 -19.395000003278255 0
    endloop
  endfacet
  facet normal 0.4338837392500884 -0.900968867838596 0
    outer loop
      vertex 42.453662969172 -18.641979604959488 0
      vertex 42.453662969172 -18.641979604959488 1.8
      vertex 40.89000000059605 -19.395000003278255 1.8
    endloop
  endfacet
  facet normal 0 0 1
    outer loop
      vertex 42.453662969172 -18.641979604959488 1.8
      vertex 42.89000000059605 -17.395000003278255 1.8
      vertex 40.89000000059605 -19.395000003278255 1.8
    endloop
  endfacet
  facet normal 0 0 1
    outer loop
      vertex 42.89000000059605 -17.395000003278255 1.8
      vertex -40.89000000059605 -19.395000003278255 1.8
      vertex 40.89000000059605 -19.395000003278255 1.8
    endloop
  endfacet
  facet normal 0 0 1
    outer loop
      vertex 42.89000000059605 -17.395000003278255 1.8
      vertex 42.89000000059605 17.395000003278255 1.8
      vertex -40.89000000059605 -19.395000003278255 1.8
    endloop
  endfacet
  facet normal 0 0 1
    outer loop
      vertex 42.89000000059605 17.395000003278255 1.8
      vertex -42.13697960227728 -18.95866297185421 1.8
      vertex -40.89000000059605 -19.395000003278255 1.8
    endloop
  endfacet
  facet normal 0 0 1
    outer loop
      vertex 42.89000000059605 17.395000003278255 1.8
      vertex 42.13697960227728 18.95866297185421 1.8
      vertex -42.13697960227728 -18.95866297185421 1.8
    endloop
  endfacet
  facet normal 0 0 1
    outer loop
      vertex 42.13697960227728 18.95866297185421 1.8
      vertex -42.89000000059605 -17.395000003278255 1.8
      vertex -42.13697960227728 -18.95866297185421 1.8
    endloop
  endfacet
  facet normal 0 0 1
    outer loop
      vertex 42.13697960227728 18.95866297185421 1.8
      vertex 40.89000000059605 19.395000003278255 1.8
      vertex -42.89000000059605 -17.395000003278255 1.8
    endloop
  endfacet
  facet normal 0 0 1
    outer loop
      vertex 40.89000000059605 19.395000003278255 1.8
      vertex -42.89000000059605 17.395000003278255 1.8
      vertex -42.89000000059605 -17.395000003278255 1.8
    endloop
  endfacet
  facet normal 0 0 1
    outer loop
      vertex 40.89000000059605 19.395000003278255 1.8
      vertex -40.89000000059605 19.395000003278255 1.8
      vertex -42.89000000059605 17.395000003278255 1.8
    endloop
  endfacet
  facet normal 0 0 1
    outer loop
      vertex -40.89000000059605 19.395000003278255 1.8
      vertex -42.453662969172 18.641979604959488 1.8
      vertex -42.89000000059605 17.395000003278255 1.8
    endloop
  endfacet
  facet normal 0 0 -1
    outer loop
      vertex 40.89000000059605 -19.395000003278255 0
      vertex 42.89000000059605 -17.395000003278255 0
      vertex 42.453662969172 -18.641979604959488 0
    endloop
  endfacet
  facet normal 0 0 -1
    outer loop
      vertex 40.89000000059605 -19.395000003278255 0
      vertex -40.89000000059605 -19.395000003278255 0
      vertex 42.89000000059605 -17.395000003278255 0
    endloop
  endfacet
  facet normal 0 0 -1
    outer loop
      vertex -40.89000000059605 -19.395000003278255 0
      vertex 42.89000000059605 17.395000003278255 0
      vertex 42.89000000059605 -17.395000003278255 0
    endloop
  endfacet
  facet normal 0 0 -1
    outer loop
      vertex -40.89000000059605 -19.395000003278255 0
      vertex -42.13697960227728 -18.95866297185421 0
      vertex 42.89000000059605 17.395000003278255 0
    endloop
  endfacet
  facet normal 0 0 -1
    outer loop
      vertex -42.13697960227728 -18.95866297185421 0
      vertex 42.13697960227728 18.95866297185421 0
      vertex 42.89000000059605 17.395000003278255 0
    endloop
  endfacet
  facet normal 0 0 -1
    outer loop
      vertex -42.13697960227728 -18.95866297185421 0
      vertex -42.89000000059605 -17.395000003278255 0
      vertex 42.13697960227728 18.95866297185421 0
    endloop
  endfacet
  facet normal 0 0 -1
    outer loop
      vertex -42.89000000059605 -17.395000003278255 0
      vertex 40.89000000059605 19.395000003278255 0
      vertex 42.13697960227728 18.95866297185421 0
    endloop
  endfacet
  facet normal 0 0 -1
    outer loop
      vertex -42.89000000059605 -17.395000003278255 0
      vertex -42.89000000059605 17.395000003278255 0
      vertex 40.89000000059605 19.395000003278255 0
    endloop
  endfacet
  facet normal 0 0 -1
    outer loop
      vertex -42.89000000059605 17.395000003278255 0
      vertex -40.89000000059605 19.395000003278255 0
      vertex 40.89000000059605 19.395000003278255 0
    endloop
  endfacet
  facet normal 0 0 -1
    outer loop
      vertex -42.89000000059605 17.395000003278255 0
      vertex -42.453662969172 18.641979604959488 0
      vertex -40.89000000059605 19.395000003278255 0
    endloop
  endfacet
endsolid OpenSCAD_Model
